<?xml version="1.0" encoding="UTF-8" standalone="no"?>
<svg
   xmlns:dc="http://purl.org/dc/elements/1.1/"
   xmlns:cc="http://creativecommons.org/ns#"
   xmlns:rdf="http://www.w3.org/1999/02/22-rdf-syntax-ns#"
   xmlns:svg="http://www.w3.org/2000/svg"
   xmlns="http://www.w3.org/2000/svg"
   id="svg921"
   version="1.1"
   viewBox="0 0 171.82253 67.474037"
   height="67.474037mm"
   width="171.82253mm">
  <defs
     id="defs915" />
  <metadata
     id="metadata918">
    <rdf:RDF>
      <cc:Work
         rdf:about="">
        <dc:format>image/svg+xml</dc:format>
        <dc:type
           rdf:resource="http://purl.org/dc/dcmitype/StillImage" />
        <dc:title></dc:title>
      </cc:Work>
    </rdf:RDF>
  </metadata>
  <g
     transform="translate(-9.3387342,-75.120123)"
     id="layer1">
    <g
       transform="matrix(0.26458333,0,0,0.26458333,-32.635559,30.306321)"
       id="g886">
      <path
         fill="#0f3c73"
         d="m 677.724,396.839 v 27.108 h 3.719 v -27.108 h 10.711 v -3.496 h -25.137 v 3.496 z M 663.3,423.947 v -3.501 H 649.307 V 410.22 h 12.242 v -3.501 h -12.242 v -9.88 h 13.554 v -3.496 H 645.59 v 30.604 z m -37.601,-27.108 v 27.108 h 3.72 v -27.108 h 10.707 v -3.496 h -25.137 v 3.496 z m -19.893,2.623 v 24.485 h 3.719 v -30.604 h -3.279 l -18.583,24.485 v -24.485 h -3.716 v 30.604 h 3.28 z m -37.51,21.426 c -3.558,0 -6.436,-1.133 -8.634,-3.388 -2.201,-2.261 -3.303,-5.212 -3.303,-8.855 0,-3.614 1.064,-6.555 3.194,-8.832 2.125,-2.271 4.85,-3.41 8.173,-3.41 3.002,0 5.523,0.759 7.565,2.271 l 1.706,-2.799 c -2.304,-1.977 -5.408,-2.968 -9.314,-2.968 -4.665,0 -8.373,1.489 -11.126,4.48 -2.754,2.986 -4.131,6.736 -4.131,11.257 0,4.748 1.434,8.561 4.306,11.433 2.87,2.873 6.609,4.306 11.215,4.306 1.924,0 3.759,-0.306 5.507,-0.917 1.75,-0.612 3.133,-1.439 4.155,-2.493 l -1.487,-2.799 c -2.215,1.807 -4.824,2.714 -7.826,2.714 m -25.97,-22.565 c 1.167,1.054 1.75,2.51 1.75,4.379 0,1.921 -0.643,3.428 -1.926,4.521 -1.28,1.094 -3.042,1.644 -5.291,1.644 -1.309,0 -2.793,-0.074 -4.456,-0.222 v -11.806 c 1.924,-0.057 3.464,-0.085 4.634,-0.085 2.36,0 4.122,0.526 5.289,1.569 m -9.923,13.863 c 1.368,0.119 2.9,0.176 4.589,0.176 3.526,0 6.246,-0.935 8.152,-2.799 1.912,-1.863 2.866,-4.141 2.866,-6.82 0,-2.742 -0.881,-5.003 -2.646,-6.799 -1.765,-1.79 -4.653,-2.691 -8.679,-2.691 -0.672,0 -2.031,0.018 -4.088,0.046 -2.057,0.028 -3.359,0.045 -3.912,0.045 v 30.604 h 3.717 v -11.762 z m -11.586,11.761 v -3.501 H 506.824 V 410.22 h 12.246 v -3.501 h -12.246 v -9.88 h 13.555 v -3.496 h -17.268 v 30.604 z m -30.606,-22.339 c 0,1.598 -0.561,2.855 -1.68,3.757 -1.125,0.906 -2.529,1.354 -4.221,1.354 h -4.897 v -9.88 c 2.187,-0.085 3.717,-0.131 4.595,-0.131 4.136,0 6.203,1.632 6.203,4.9 m -0.72,9.683 c 1.21,0.861 1.816,2.09 1.816,3.693 0,1.836 -0.621,3.229 -1.861,4.176 -1.238,0.945 -3.009,1.422 -5.309,1.422 -1.807,0 -3.382,-0.062 -4.725,-0.176 v -10.407 h 4.94 c 2.216,0 3.927,0.431 5.139,1.292 m -5.574,12.786 c 3.354,0 6.039,-0.736 8.067,-2.209 2.025,-1.468 3.036,-3.694 3.036,-6.668 0,-2.04 -0.566,-3.677 -1.705,-4.918 -1.136,-1.235 -2.68,-2.017 -4.631,-2.34 v -0.085 c 1.572,-0.526 2.841,-1.377 3.804,-2.561 0.958,-1.179 1.439,-2.686 1.439,-4.521 0,-2.301 -0.779,-4.142 -2.337,-5.513 -1.562,-1.365 -4.06,-2.051 -7.498,-2.051 -1.049,0 -3.847,0.057 -8.396,0.176 V 423.9 c 2.391,0.121 5.13,0.177 8.221,0.177 m -21.551,-24.615 v 24.485 h 3.714 v -30.604 h -3.277 l -18.583,24.485 v -24.485 h -3.716 v 30.604 h 3.28 z m -31.479,24.485 v -30.604 h -3.716 v 13.246 h -16.832 v -13.246 h -3.719 v 30.604 h 3.719 V 410.09 h 16.832 v 13.857 z m -33.708,-30.604 -8.394,19.194 -11.455,-19.194 h -4.198 l 13.857,22.911 -0.521,1.133 c -0.994,2.073 -2.249,3.104 -3.762,3.104 -0.815,0 -1.603,-0.261 -2.362,-0.787 l -1.309,3.149 c 0.93,0.726 2.17,1.094 3.717,1.094 1.632,0 3.036,-0.562 4.221,-1.683 1.176,-1.122 2.306,-2.896 3.388,-5.314 l 10.577,-23.607 z"
         id="path864" />
      <path
         fill="#0f3c73"
         d="m 719.718,337.841 c 1.473,1.002 3.328,1.507 5.574,1.507 2.128,0 3.94,-0.505 5.444,-1.507 1.499,-1.009 2.352,-2.329 2.556,-3.955 h -3.496 c -0.438,1.893 -1.94,2.839 -4.504,2.839 -2.419,0 -3.977,-0.946 -4.68,-2.839 h -3.495 c 0.261,1.626 1.128,2.946 2.601,3.955 m 14.361,9.154 v 24.486 h 3.717 v -30.604 h -3.277 l -18.583,24.485 v -24.485 h -3.716 v 30.604 h 3.28 z m -59.239,-6.118 v 30.604 c 0.527,0 1.581,0.017 3.17,0.045 1.589,0.028 2.847,0.045 3.781,0.045 3.815,0 6.799,-0.884 8.943,-2.646 2.141,-1.768 3.209,-4.249 3.209,-7.455 0,-2.969 -0.943,-5.292 -2.838,-6.951 -1.898,-1.66 -4.723,-2.493 -8.481,-2.493 -0.875,0 -2.232,0.073 -4.067,0.221 v -11.37 z m 13.206,16.203 c 1.309,1.031 1.966,2.526 1.966,4.481 0,4.339 -2.598,6.509 -7.784,6.509 -0.085,0 -1.309,-0.045 -3.671,-0.13 v -12.152 c 1.516,-0.176 2.781,-0.261 3.804,-0.261 2.475,0 4.37,0.516 5.685,1.553 m 14.557,-16.203 h -3.716 v 30.604 h 3.716 z m -37.379,30.604 v -30.604 h -3.717 v 13.245 h -16.832 v -13.245 h -3.719 v 30.604 h 3.719 v -13.857 h 16.832 v 13.857 z m -51.023,-30.604 v 30.604 c 0.524,0 1.618,0.017 3.28,0.045 1.657,0.028 2.955,0.045 3.89,0.045 3.906,0 6.942,-0.884 9.115,-2.646 2.17,-1.768 3.258,-4.249 3.258,-7.455 0,-2.969 -0.963,-5.292 -2.887,-6.951 -1.921,-1.66 -4.807,-2.493 -8.653,-2.493 -1.022,0 -2.45,0.073 -4.289,0.221 v -11.37 z m 13.555,16.203 c 1.368,1.031 2.054,2.526 2.054,4.481 0,2.152 -0.694,3.778 -2.076,4.872 -1.386,1.093 -3.359,1.637 -5.924,1.637 -0.234,0 -1.532,-0.045 -3.895,-0.13 v -12.152 c 1.547,-0.176 2.887,-0.261 4.025,-0.261 2.504,0 4.442,0.516 5.816,1.553 m -23.174,14.401 v -30.604 h -18.319 l -0.436,6.118 c -0.261,3.796 -0.626,7.06 -1.094,9.796 -0.465,2.742 -0.94,4.81 -1.419,6.209 -0.481,1.399 -1.037,2.487 -1.663,3.258 -0.626,0.771 -1.158,1.234 -1.595,1.376 -0.438,0.147 -0.935,0.193 -1.487,0.131 l -0.045,3.717 c 1.051,0.146 1.982,0.118 2.802,-0.086 0.812,-0.203 1.651,-0.73 2.51,-1.574 0.86,-0.845 1.611,-2.04 2.255,-3.586 0.64,-1.541 1.237,-3.666 1.793,-6.362 0.549,-2.691 1.002,-5.938 1.354,-9.728 l 0.524,-5.768 h 11.104 v 27.104 h 3.716 z m -30.429,0 v -3.496 h -13.987 v -10.231 h 12.24 v -3.501 h -12.24 v -9.875 h 13.552 v -3.501 h -17.273 v 30.604 z m -37.597,-27.103 v 27.104 h 3.717 v -27.104 h 10.71 v -3.501 h -25.137 v 3.501 z m -19.894,2.617 v 24.486 h 3.717 v -30.604 h -3.277 l -18.579,24.485 V 340.877 H 494.8 v 30.604 h 3.283 z m -53.03,0.398 c 2.213,-2.301 4.997,-3.456 8.352,-3.456 3.291,0 6.062,1.161 8.302,3.479 2.246,2.316 3.371,5.24 3.371,8.764 0,3.496 -1.088,6.413 -3.258,8.747 -2.175,2.329 -4.979,3.496 -8.415,3.496 -3.295,0 -6.065,-1.173 -8.309,-3.519 -2.243,-2.345 -3.365,-5.252 -3.365,-8.725 0,-3.552 1.104,-6.481 3.322,-8.786 m -2.819,20.111 c 2.955,2.946 6.68,4.419 11.17,4.419 4.458,0 8.172,-1.496 11.146,-4.487 2.974,-2.985 4.461,-6.735 4.461,-11.257 0,-4.605 -1.479,-8.379 -4.438,-11.319 -2.958,-2.945 -6.683,-4.419 -11.169,-4.419 -4.519,0 -8.252,1.513 -11.192,4.527 -2.946,3.02 -4.419,6.753 -4.419,11.211 0,4.606 1.482,8.384 4.441,11.325 m -14.54,-21.642 c 1.167,1.048 1.748,2.51 1.748,4.374 0,1.92 -0.64,3.433 -1.921,4.526 -1.282,1.094 -3.048,1.638 -5.291,1.638 -1.312,0 -2.799,-0.074 -4.458,-0.222 v -11.801 c 1.923,-0.062 3.467,-0.091 4.634,-0.091 2.36,10e-4 4.124,0.528 5.288,1.576 m -9.921,13.864 c 1.37,0.113 2.897,0.17 4.589,0.17 3.526,0 6.243,-0.935 8.152,-2.799 1.909,-1.864 2.866,-4.136 2.866,-6.821 0,-2.736 -0.884,-5.002 -2.646,-6.798 -1.762,-1.79 -4.657,-2.686 -8.68,-2.686 -0.671,0 -2.033,0.012 -4.09,0.04 -2.051,0.034 -3.356,0.045 -3.909,0.045 v 30.604 h 3.717 v -11.755 z m -23.608,-15.348 v 27.104 h 3.716 v -27.104 h 10.711 v -3.501 h -25.14 v 3.501 z m -22.211,24.044 c -3.555,0 -6.433,-1.128 -8.637,-3.388 -2.198,-2.261 -3.3,-5.212 -3.3,-8.855 0,-3.614 1.064,-6.555 3.192,-8.832 2.127,-2.271 4.854,-3.41 8.175,-3.41 3.003,0 5.523,0.759 7.565,2.277 l 1.703,-2.799 c -2.301,-1.982 -5.408,-2.975 -9.312,-2.975 -4.665,0 -8.37,1.496 -11.126,4.481 -2.757,2.991 -4.133,6.742 -4.133,11.257 0,4.754 1.433,8.566 4.306,11.433 2.872,2.872 6.611,4.312 11.214,4.312 1.927,0 3.762,-0.312 5.51,-0.924 1.748,-0.611 3.133,-1.438 4.152,-2.492 l -1.484,-2.799 c -2.213,1.813 -4.822,2.714 -7.825,2.714"
         id="path866" />
      <path
         fill="#0f3c73"
         d="m 789.976,285.377 c 1.471,1.006 3.328,1.51 5.574,1.51 2.128,0 3.94,-0.504 5.442,-1.51 1.501,-1.006 2.351,-2.325 2.558,-3.954 h -3.498 c -0.437,1.892 -1.938,2.838 -4.502,2.838 -2.422,0 -3.979,-0.946 -4.679,-2.838 h -3.499 c 0.261,1.629 1.131,2.948 2.604,3.954 m 14.361,9.158 v 24.485 h 3.714 v -30.604 h -3.277 l -18.582,24.483 v -24.483 h -3.714 v 30.604 h 3.277 z m -58.454,-6.119 v 30.604 c 0.524,0 1.58,0.014 3.17,0.042 1.589,0.028 2.85,0.043 3.781,0.043 3.818,0 6.801,-0.881 8.939,-2.643 2.145,-1.765 3.216,-4.249 3.216,-7.456 0,-2.975 -0.949,-5.288 -2.842,-6.951 -1.895,-1.66 -4.725,-2.49 -8.483,-2.49 -0.872,0 -2.227,0.071 -4.065,0.219 v -11.368 z m 13.203,16.2 c 1.312,1.031 1.972,2.524 1.972,4.481 0,4.343 -2.598,6.513 -7.784,6.513 -0.091,0 -1.314,-0.046 -3.675,-0.134 v -12.152 c 1.516,-0.175 2.785,-0.263 3.805,-0.263 2.478,0.001 4.37,0.519 5.682,1.555 m 14.56,-16.2 h -3.717 v 30.604 h 3.717 z m -36.592,30.605 v -30.604 h -3.717 v 13.246 h -16.832 v -13.246 h -3.719 v 30.604 h 3.719 v -13.86 h 16.832 v 13.86 z m -33.097,0 v -30.604 h -3.717 v 13.246 h -16.831 v -13.246 h -3.717 v 30.604 h 3.717 v -13.86 h 16.831 v 13.86 z m -31.347,0 v -3.498 h -13.99 v -10.231 h 12.24 v -3.499 h -12.24 v -9.88 h 13.552 v -3.496 h -17.271 v 30.604 z M 642.794,296.68 c 0,1.603 -0.563,2.857 -1.686,3.759 -1.121,0.903 -2.529,1.354 -4.218,1.354 h -4.895 v -9.88 c 2.185,-0.085 3.714,-0.131 4.589,-0.131 4.14,-10e-4 6.21,1.634 6.21,4.898 m -0.722,9.681 c 1.209,0.861 1.812,2.094 1.812,3.696 0,1.836 -0.617,3.227 -1.855,4.176 -1.24,0.946 -3.011,1.419 -5.313,1.419 -1.808,0 -3.38,-0.06 -4.72,-0.176 v -10.404 h 4.94 c 2.212,0 3.926,0.431 5.136,1.289 m -5.575,12.789 c 3.354,0 6.039,-0.733 8.067,-2.206 2.022,-1.474 3.04,-3.697 3.04,-6.671 0,-2.037 -0.569,-3.677 -1.706,-4.915 -1.139,-1.24 -2.685,-2.02 -4.637,-2.343 v -0.085 c 1.575,-0.526 2.844,-1.379 3.805,-2.558 0.963,-1.179 1.444,-2.688 1.444,-4.526 0,-2.3 -0.782,-4.136 -2.343,-5.51 -1.558,-1.368 -4.057,-2.054 -7.498,-2.054 -1.045,0 -3.847,0.06 -8.393,0.176 v 30.516 c 2.392,0.117 5.131,0.176 8.221,0.176 m -27.323,-27.238 v 27.108 h 3.716 v -27.108 h 10.711 v -3.496 h -25.14 v 3.496 z m -21.421,24.046 c -3.558,0 -6.438,-1.127 -8.637,-3.388 -2.201,-2.258 -3.3,-5.209 -3.3,-8.852 0,-3.615 1.062,-6.558 3.189,-8.832 2.127,-2.275 4.853,-3.411 8.178,-3.411 3.003,0 5.523,0.76 7.561,2.274 l 1.708,-2.801 c -2.306,-1.98 -5.407,-2.972 -9.313,-2.972 -4.663,0 -8.374,1.493 -11.127,4.481 -2.753,2.988 -4.133,6.741 -4.133,11.26 0,4.75 1.437,8.56 4.309,11.433 2.872,2.869 6.608,4.306 11.215,4.306 1.923,0 3.759,-0.307 5.506,-0.918 1.751,-0.612 3.133,-1.442 4.156,-2.493 l -1.487,-2.799 c -2.217,1.812 -4.828,2.712 -7.825,2.712 m -25.185,-22.559 c 1.167,1.048 1.75,2.51 1.75,4.373 0,1.924 -0.64,3.431 -1.923,4.524 -1.286,1.093 -3.051,1.64 -5.292,1.64 -1.312,0 -2.798,-0.073 -4.461,-0.218 v -11.807 c 1.926,-0.057 3.47,-0.085 4.634,-0.085 2.364,10e-4 4.125,0.525 5.292,1.573 m -9.925,13.858 c 1.371,0.118 2.9,0.178 4.592,0.178 3.526,0 6.246,-0.935 8.155,-2.799 1.906,-1.866 2.86,-4.141 2.86,-6.82 0,-2.739 -0.881,-5.006 -2.646,-6.799 -1.762,-1.793 -4.654,-2.688 -8.674,-2.688 -0.674,0 -2.033,0.014 -4.09,0.042 -2.057,0.028 -3.359,0.045 -3.915,0.045 v 30.604 h 3.717 v -11.763 z m -17.965,-1.003 h -11.019 l 5.509,-13.073 z m -16.396,12.767 3.89,-9.269 h 13.945 l 3.938,9.269 h 3.977 l -13.157,-30.779 h -3.192 l -13.161,30.779 z m -23.958,-27.109 h 10.71 v 23.61 h -15.52 c 0.756,-0.933 1.603,-3.022 2.532,-6.274 0.935,-3.249 1.563,-7.206 1.881,-11.869 z m -8.702,32.791 v -5.683 h 23.783 v 5.683 h 3.501 v -9.181 h -4.155 v -27.106 h -18.013 l -0.307,6.119 c -0.291,5.628 -0.969,10.24 -2.033,13.84 -1.065,3.598 -2.062,5.98 -2.997,7.147 h -3.274 v 9.181 z m -5.246,-36.287 -8.396,19.191 -11.453,-19.191 h -4.197 l 13.859,22.908 -0.526,1.136 c -0.986,2.073 -2.243,3.104 -3.756,3.104 -0.816,0 -1.606,-0.261 -2.362,-0.784 l -1.312,3.146 c 0.932,0.729 2.169,1.094 3.716,1.094 1.635,0 3.04,-0.561 4.218,-1.683 1.185,-1.122 2.312,-2.893 3.388,-5.314 l 10.58,-23.607 z m -34.054,27.542 c -3.558,0 -6.438,-1.127 -8.637,-3.388 -2.201,-2.258 -3.3,-5.209 -3.3,-8.852 0,-3.615 1.059,-6.558 3.189,-8.832 2.124,-2.275 4.852,-3.411 8.175,-3.411 3.003,0 5.523,0.76 7.563,2.274 l 1.705,-2.801 c -2.301,-1.98 -5.405,-2.972 -9.309,-2.972 -4.668,0 -8.376,1.493 -11.129,4.481 -2.757,2.988 -4.133,6.741 -4.133,11.26 0,4.75 1.436,8.56 4.306,11.433 2.872,2.869 6.611,4.306 11.217,4.306 1.921,0 3.756,-0.307 5.507,-0.918 1.75,-0.612 3.133,-1.442 4.152,-2.493 l -1.484,-2.799 c -2.213,1.812 -4.825,2.712 -7.822,2.712 m -43.855,-21.029 c 2.216,-2.303 5,-3.453 8.351,-3.453 3.295,0 6.065,1.159 8.312,3.479 2.24,2.314 3.362,5.237 3.362,8.765 0,3.495 -1.085,6.41 -3.258,8.741 -2.167,2.334 -4.977,3.498 -8.416,3.498 -3.291,0 -6.062,-1.17 -8.305,-3.518 -2.244,-2.346 -3.368,-5.252 -3.368,-8.722 0,-3.556 1.107,-6.488 3.322,-8.79 m -2.819,20.111 c 2.954,2.943 6.683,4.417 11.169,4.417 4.459,0 8.176,-1.493 11.149,-4.481 2.975,-2.985 4.462,-6.739 4.462,-11.257 0,-4.606 -1.481,-8.379 -4.439,-11.325 -2.957,-2.943 -6.685,-4.416 -11.172,-4.416 -4.518,0 -8.248,1.507 -11.191,4.523 -2.943,3.016 -4.416,6.756 -4.416,11.218 0,4.602 1.478,8.379 4.438,11.321 m -18.865,3.981 v -27.108 h 13.333 v -3.496 h -17.047 v 30.604 z"
         id="path868" />
      <path
         fill="#0f3c73"
         d="m 673.027,232.914 c 1.47,1.002 3.331,1.51 5.574,1.51 2.128,0 3.94,-0.508 5.441,-1.51 1.505,-1.006 2.354,-2.326 2.559,-3.958 h -3.496 c -0.438,1.896 -1.94,2.842 -4.504,2.842 -2.422,0 -3.979,-0.946 -4.677,-2.842 h -3.498 c 0.262,1.632 1.128,2.952 2.601,3.958 m 14.362,9.157 v 24.482 h 3.717 V 235.95 h -3.278 l -18.582,24.485 V 235.95 h -3.716 v 30.604 h 3.277 z m -35.193,0 v 24.482 h 3.716 V 235.95 h -3.28 l -18.579,24.485 V 235.95 h -3.717 v 30.604 h 3.277 z m -47.13,-6.121 h -3.717 v 30.604 h 3.717 z m 14.163,0 -13.421,14.645 13.86,15.959 h 4.764 l -14.341,-16.22 13.642,-14.384 z m -33.53,27.545 c -3.558,0 -6.438,-1.128 -8.637,-3.388 -2.201,-2.261 -3.3,-5.21 -3.3,-8.853 0,-3.614 1.062,-6.558 3.189,-8.832 2.127,-2.274 4.853,-3.41 8.178,-3.41 3.003,0 5.523,0.759 7.561,2.271 l 1.708,-2.799 c -2.306,-1.979 -5.407,-2.972 -9.311,-2.972 -4.666,0 -8.376,1.493 -11.13,4.481 -2.753,2.985 -4.133,6.739 -4.133,11.26 0,4.75 1.437,8.561 4.309,11.43 2.872,2.872 6.608,4.309 11.215,4.309 1.923,0 3.759,-0.306 5.506,-0.921 1.751,-0.611 3.133,-1.438 4.156,-2.489 l -1.487,-2.799 c -2.215,1.811 -4.827,2.712 -7.824,2.712 m -26.366,-19.279 c 0,1.604 -0.558,2.855 -1.683,3.759 -1.121,0.904 -2.526,1.354 -4.221,1.354 h -4.895 v -9.881 c 2.187,-0.088 3.717,-0.13 4.592,-0.13 4.14,0 6.207,1.635 6.207,4.898 m -0.72,9.681 c 1.207,0.861 1.813,2.094 1.813,3.694 0,1.835 -0.617,3.229 -1.858,4.178 -1.237,0.946 -3.008,1.419 -5.312,1.419 -1.807,0 -3.382,-0.059 -4.722,-0.175 v -10.404 h 4.94 c 2.216,0 3.927,0.431 5.139,1.288 m -5.574,12.791 c 3.351,0 6.039,-0.736 8.067,-2.21 2.025,-1.47 3.037,-3.693 3.037,-6.668 0,-2.039 -0.567,-3.677 -1.706,-4.917 -1.139,-1.238 -2.68,-2.018 -4.631,-2.34 v -0.088 c 1.572,-0.524 2.841,-1.377 3.801,-2.556 0.961,-1.181 1.442,-2.688 1.442,-4.526 0,-2.3 -0.782,-4.139 -2.337,-5.509 -1.561,-1.368 -4.062,-2.054 -7.498,-2.054 -1.051,0 -3.847,0.06 -8.396,0.175 v 30.517 c 2.392,0.116 5.13,0.176 8.221,0.176 m -39.391,-24.223 c 2.215,-2.303 4.999,-3.452 8.351,-3.452 3.294,0 6.062,1.158 8.306,3.473 2.246,2.317 3.367,5.243 3.367,8.77 0,3.496 -1.087,6.41 -3.257,8.741 -2.173,2.332 -4.978,3.499 -8.416,3.499 -3.292,0 -6.062,-1.173 -8.309,-3.519 -2.243,-2.346 -3.365,-5.254 -3.365,-8.722 0,-3.558 1.109,-6.486 3.323,-8.79 m -2.821,20.112 c 2.957,2.943 6.685,4.416 11.172,4.416 4.459,0 8.175,-1.493 11.149,-4.481 2.974,-2.988 4.458,-6.741 4.458,-11.257 0,-4.605 -1.479,-8.379 -4.438,-11.325 -2.96,-2.942 -6.682,-4.416 -11.169,-4.416 -4.519,0 -8.252,1.507 -11.191,4.524 -2.943,3.017 -4.417,6.756 -4.417,11.217 0,4.603 1.479,8.379 4.436,11.322 M 485.361,235.95 h -3.716 v 30.604 h 3.716 z m 14.163,0 -13.421,14.645 13.86,15.959 h 4.762 l -14.336,-16.22 13.639,-14.384 z m -33.532,27.545 c -3.558,0 -6.434,-1.128 -8.634,-3.388 -2.198,-2.261 -3.304,-5.21 -3.304,-8.853 0,-3.614 1.065,-6.558 3.195,-8.832 2.125,-2.274 4.853,-3.41 8.176,-3.41 2.999,0 5.521,0.759 7.562,2.271 l 1.705,-2.799 c -2.303,-1.979 -5.404,-2.972 -9.313,-2.972 -4.662,0 -8.37,1.493 -11.127,4.481 -2.753,2.985 -4.13,6.739 -4.13,11.26 0,4.75 1.434,8.561 4.306,11.43 2.87,2.872 6.609,4.309 11.215,4.309 1.923,0 3.759,-0.306 5.51,-0.921 1.75,-0.611 3.133,-1.438 4.152,-2.489 l -1.487,-2.799 c -2.212,1.811 -4.824,2.712 -7.826,2.712 m -44.637,-21.03 c 2.215,-2.303 4.999,-3.452 8.351,-3.452 3.294,0 6.062,1.158 8.305,3.473 2.246,2.317 3.371,5.243 3.371,8.77 0,3.496 -1.088,6.41 -3.258,8.741 -2.175,2.332 -4.979,3.499 -8.418,3.499 -3.292,0 -6.062,-1.173 -8.309,-3.519 -2.24,-2.346 -3.362,-5.254 -3.362,-8.722 0,-3.558 1.105,-6.486 3.32,-8.79 m -2.821,20.112 c 2.96,2.943 6.685,4.416 11.172,4.416 4.461,0 8.175,-1.493 11.149,-4.481 2.974,-2.988 4.458,-6.741 4.458,-11.257 0,-4.605 -1.479,-8.379 -4.436,-11.325 -2.96,-2.942 -6.686,-4.416 -11.172,-4.416 -4.516,0 -8.249,1.507 -11.189,4.524 -2.945,3.017 -4.419,6.756 -4.419,11.217 0.001,4.603 1.479,8.379 4.437,11.322 m -37.751,3.977 v -24.612 l 10.974,15.084 h 0.569 l 10.844,-15.215 v 24.743 h 3.713 V 235.95 h -3.543 l -11.014,15.695 -11.501,-15.695 h -3.756 v 30.604 z"
         id="path870" />
      <path
         fill="#0f3c73"
         d="m 798.979,191.637 c 0.728,0.501 1.651,0.756 2.763,0.756 1.055,0 1.953,-0.255 2.696,-0.756 0.747,-0.505 1.169,-1.162 1.271,-1.978 h -1.733 c -0.22,0.946 -0.96,1.422 -2.233,1.422 -1.197,0 -1.974,-0.476 -2.318,-1.422 h -1.736 c 0.131,0.816 0.561,1.473 1.29,1.978 m 7.117,4.58 v 12.24 h 1.846 v -15.3 h -1.626 l -9.212,12.24 v -12.24 h -1.842 v 15.3 h 1.626 z m -16.687,0 v 12.24 h 1.843 v -15.3 h -1.624 l -9.212,12.24 v -12.24 h -1.843 v 15.3 h 1.627 z m -22.605,-3.06 h -1.843 v 15.3 h 1.843 z m 7.023,0 -6.655,7.319 6.871,7.98 h 2.362 l -7.108,-8.11 6.763,-7.189 z m -15.865,13.77 c -1.763,0 -3.19,-0.563 -4.279,-1.693 -1.09,-1.131 -1.638,-2.606 -1.638,-4.428 0,-1.808 0.528,-3.277 1.581,-4.413 1.057,-1.139 2.408,-1.705 4.053,-1.705 1.492,0 2.74,0.379 3.75,1.136 l 0.848,-1.399 c -1.144,-0.991 -2.682,-1.487 -4.616,-1.487 -2.312,0 -4.151,0.748 -5.517,2.243 -1.364,1.493 -2.047,3.368 -2.047,5.626 0,2.377 0.711,4.283 2.134,5.716 1.424,1.437 3.274,2.153 5.559,2.153 0.955,0 1.865,-0.15 2.732,-0.459 0.864,-0.303 1.553,-0.723 2.059,-1.243 l -0.739,-1.399 c -1.096,0.902 -2.39,1.352 -3.88,1.352 m -18.855,-13.77 v 15.3 c 0.258,0 0.803,0.008 1.625,0.025 0.826,0.011 1.467,0.02 1.931,0.02 1.934,0 3.442,-0.442 4.519,-1.323 1.075,-0.881 1.615,-2.124 1.615,-3.728 0,-1.484 -0.478,-2.646 -1.433,-3.476 -0.953,-0.83 -2.385,-1.246 -4.292,-1.246 -0.506,0 -1.214,0.037 -2.121,0.11 v -5.683 h -1.844 z m 6.718,8.099 c 0.68,0.516 1.019,1.264 1.019,2.238 0,1.079 -0.342,1.892 -1.03,2.441 -0.685,0.544 -1.666,0.815 -2.935,0.815 -0.116,0 -0.759,-0.02 -1.928,-0.062 v -6.079 c 0.765,-0.088 1.431,-0.134 1.992,-0.134 1.245,0.002 2.205,0.265 2.882,0.781 m -10.726,7.201 v -15.3 h -9.082 l -0.216,3.06 c -0.129,1.895 -0.31,3.526 -0.542,4.897 -0.23,1.368 -0.467,2.405 -0.705,3.102 -0.236,0.7 -0.514,1.244 -0.822,1.629 -0.312,0.389 -0.576,0.618 -0.792,0.691 -0.217,0.07 -0.464,0.094 -0.736,0.062 l -0.021,1.858 c 0.519,0.073 0.982,0.059 1.384,-0.043 0.407,-0.102 0.822,-0.365 1.249,-0.784 0.424,-0.426 0.798,-1.023 1.115,-1.794 0.318,-0.775 0.612,-1.832 0.89,-3.184 0.273,-1.349 0.498,-2.969 0.673,-4.863 l 0.258,-2.887 h 5.505 v 13.555 h 1.842 z m -14.328,0 v -1.748 h -6.934 v -5.113 h 6.069 v -1.75 h -6.069 v -4.943 h 6.718 v -1.745 h -8.56 v 15.3 h 8.776 z m -17.878,-13.555 v 13.555 h 1.843 v -13.555 h 5.31 v -1.745 h -12.461 v 1.745 z m -8.455,7.172 h -5.46 l 2.73,-6.534 z m -8.124,6.383 1.929,-4.635 h 6.912 l 1.952,4.635 h 1.972 l -6.524,-15.391 h -1.584 l -6.521,15.391 z m -5.549,-11.17 c 0,0.802 -0.277,1.428 -0.837,1.881 -0.553,0.451 -1.249,0.678 -2.089,0.678 h -2.427 v -4.943 c 1.084,-0.042 1.842,-0.062 2.274,-0.062 2.053,-0.001 3.079,0.815 3.079,2.446 m -0.36,4.842 c 0.601,0.43 0.901,1.048 0.901,1.847 0,0.92 -0.309,1.617 -0.922,2.09 -0.614,0.474 -1.49,0.711 -2.633,0.711 -0.896,0 -1.677,-0.03 -2.34,-0.087 v -5.204 h 2.449 c 1.099,-10e-4 1.948,0.215 2.545,0.643 m -2.763,6.395 c 1.663,0 2.996,-0.368 4.003,-1.104 1.002,-0.736 1.505,-1.847 1.505,-3.334 0,-1.02 -0.281,-1.839 -0.845,-2.459 -0.566,-0.62 -1.332,-1.008 -2.298,-1.17 v -0.042 c 0.777,-0.264 1.409,-0.691 1.887,-1.28 0.475,-0.593 0.714,-1.346 0.714,-2.261 0,-1.153 -0.389,-2.073 -1.16,-2.756 -0.772,-0.686 -2.014,-1.028 -3.716,-1.028 -0.519,0 -1.909,0.031 -4.161,0.088 v 15.256 c 1.181,0.059 2.54,0.09 4.071,0.09 m -18.766,-12.112 c 1.099,-1.15 2.478,-1.725 4.137,-1.725 1.634,0 3.005,0.577 4.119,1.736 1.113,1.158 1.669,2.62 1.669,4.382 0,1.751 -0.539,3.209 -1.615,4.374 -1.075,1.167 -2.468,1.747 -4.173,1.747 -1.628,0 -3.005,-0.586 -4.113,-1.759 -1.112,-1.173 -1.672,-2.629 -1.672,-4.362 0,-1.779 0.547,-3.243 1.648,-4.393 m -1.398,10.056 c 1.466,1.474 3.313,2.207 5.535,2.207 2.213,0 4.056,-0.745 5.527,-2.238 1.477,-1.495 2.212,-3.37 2.212,-5.631 0,-2.303 -0.732,-4.189 -2.201,-5.662 -1.466,-1.471 -3.312,-2.207 -5.538,-2.207 -2.239,0 -4.086,0.754 -5.547,2.264 -1.458,1.507 -2.188,3.379 -2.188,5.605 0,2.302 0.733,4.192 2.2,5.662 m -12.411,-11.566 h 5.312 v 11.807 h -7.698 c 0.381,-0.468 0.799,-1.513 1.26,-3.136 0.464,-1.626 0.771,-3.606 0.936,-5.935 z m -4.31,16.399 v -2.844 h 11.789 v 2.844 h 1.732 v -4.592 h -2.059 v -13.552 h -8.927 l -0.153,3.06 c -0.146,2.81 -0.48,5.118 -1.007,6.917 -0.528,1.799 -1.023,2.991 -1.484,3.575 h -1.625 v 4.592 z m -2.927,-2.844 v -1.748 h -6.935 v -5.113 h 6.069 v -1.75 h -6.069 v -4.943 h 6.718 v -1.745 h -8.56 v 15.3 h 8.777 z m -12.787,0 v -15.3 h -9.08 l -0.216,3.06 c -0.13,1.895 -0.312,3.526 -0.545,4.897 -0.23,1.368 -0.467,2.405 -0.702,3.102 -0.239,0.7 -0.514,1.244 -0.825,1.629 -0.31,0.389 -0.573,0.618 -0.79,0.691 -0.217,0.07 -0.463,0.094 -0.735,0.062 l -0.025,1.858 c 0.522,0.073 0.985,0.059 1.391,-0.043 0.401,-0.102 0.819,-0.365 1.243,-0.784 0.427,-0.426 0.798,-1.023 1.118,-1.794 0.318,-0.775 0.615,-1.832 0.888,-3.184 0.272,-1.349 0.497,-2.969 0.674,-4.863 l 0.259,-2.887 h 5.505 v 13.555 h 1.84 z m -17.73,-1.53 c -1.761,0 -3.188,-0.563 -4.277,-1.693 -1.093,-1.131 -1.638,-2.606 -1.638,-4.428 0,-1.808 0.526,-3.277 1.581,-4.413 1.056,-1.139 2.407,-1.705 4.053,-1.705 1.488,0 2.738,0.379 3.75,1.136 l 0.845,-1.399 c -1.14,-0.991 -2.679,-1.487 -4.614,-1.487 -2.312,0 -4.151,0.748 -5.515,2.243 -1.368,1.493 -2.048,3.368 -2.048,5.626 0,2.377 0.71,4.283 2.134,5.716 1.421,1.437 3.275,2.153 5.558,2.153 0.955,0 1.862,-0.15 2.732,-0.459 0.866,-0.303 1.554,-0.723 2.059,-1.243 l -0.737,-1.399 c -1.1,0.902 -2.391,1.352 -3.883,1.352 m -13.089,0 c -1.763,0 -3.19,-0.563 -4.279,-1.693 -1.092,-1.131 -1.636,-2.606 -1.636,-4.428 0,-1.808 0.525,-3.277 1.581,-4.413 1.056,-1.139 2.406,-1.705 4.053,-1.705 1.487,0 2.741,0.379 3.748,1.136 l 0.847,-1.399 c -1.14,-0.991 -2.68,-1.487 -4.614,-1.487 -2.314,0 -4.151,0.748 -5.516,2.243 -1.369,1.493 -2.052,3.368 -2.052,5.626 0,2.377 0.711,4.283 2.136,5.716 1.425,1.437 3.278,2.153 5.56,2.153 0.955,0 1.862,-0.15 2.73,-0.459 0.868,-0.303 1.555,-0.723 2.062,-1.243 l -0.74,-1.399 c -1.098,0.902 -2.39,1.352 -3.88,1.352 m -12.527,-10.71 v 12.24 h 1.843 v -15.3 h -1.626 l -9.211,12.24 v -12.24 h -1.843 v 15.3 h 1.628 z m -27.924,-4.58 c 0.731,0.501 1.651,0.756 2.764,0.756 1.056,0 1.952,-0.255 2.695,-0.756 0.748,-0.505 1.169,-1.162 1.27,-1.978 h -1.734 c -0.214,0.946 -0.961,1.422 -2.23,1.422 -1.202,0 -1.975,-0.476 -2.319,-1.422 h -1.733 c 0.127,0.816 0.557,1.473 1.287,1.978 m 7.12,4.58 v 12.24 h 1.84 v -15.3 h -1.623 l -9.212,12.24 v -12.24 h -1.843 v 15.3 h 1.626 z m -28.609,-3.06 v 15.3 c 0.259,0 0.779,0.008 1.572,0.025 0.785,0.011 1.409,0.02 1.874,0.02 1.889,0 3.37,-0.442 4.431,-1.323 1.063,-0.881 1.593,-2.124 1.593,-3.728 0,-1.484 -0.467,-2.646 -1.41,-3.476 -0.938,-0.83 -2.337,-1.246 -4.201,-1.246 -0.433,0 -1.106,0.037 -2.016,0.11 v -5.683 h -1.843 z m 6.546,8.099 c 0.648,0.516 0.975,1.264 0.975,2.238 0,2.172 -1.287,3.257 -3.855,3.257 -0.042,0 -0.655,-0.02 -1.822,-0.062 v -6.079 c 0.751,-0.088 1.377,-0.134 1.886,-0.134 1.223,0.001 2.168,0.264 2.816,0.78 m 7.218,-8.099 h -1.846 v 15.3 h 1.846 z m -17.775,15.3 v -15.3 h -1.843 v 6.623 h -8.341 v -6.623 h -1.843 v 15.3 h 1.843 v -6.929 h 8.341 v 6.929 z m -24.532,-15.3 v 15.3 c 0.259,0 0.801,0.008 1.626,0.025 0.82,0.011 1.466,0.02 1.927,0.02 1.938,0 3.443,-0.442 4.521,-1.323 1.073,-0.881 1.615,-2.124 1.615,-3.728 0,-1.484 -0.478,-2.646 -1.433,-3.476 -0.952,-0.83 -2.384,-1.246 -4.291,-1.246 -0.506,0 -1.214,0.037 -2.126,0.11 v -5.683 h -1.839 z m 6.718,8.099 c 0.677,0.516 1.02,1.264 1.02,2.238 0,1.079 -0.343,1.892 -1.031,2.441 -0.685,0.544 -1.665,0.815 -2.935,0.815 -0.118,0 -0.761,-0.02 -1.932,-0.062 v -6.079 c 0.77,-0.088 1.433,-0.134 1.997,-0.134 1.244,0.002 2.204,0.265 2.881,0.781 m -10.726,7.201 v -15.3 h -9.082 l -0.216,3.06 c -0.132,1.895 -0.312,3.526 -0.543,4.897 -0.23,1.368 -0.466,2.405 -0.706,3.102 -0.236,0.7 -0.512,1.244 -0.821,1.629 -0.311,0.389 -0.575,0.618 -0.791,0.691 -0.219,0.07 -0.464,0.094 -0.736,0.062 l -0.022,1.858 c 0.52,0.073 0.983,0.059 1.388,-0.043 0.403,-0.102 0.816,-0.365 1.245,-0.784 0.425,-0.426 0.799,-1.023 1.116,-1.794 0.317,-0.775 0.612,-1.832 0.89,-3.184 0.27,-1.349 0.494,-2.969 0.669,-4.863 l 0.262,-2.887 h 5.504 v 13.555 h 1.843 z m -17.619,-6.383 h -5.463 l 2.728,-6.534 z m -8.128,6.383 1.926,-4.635 h 6.915 l 1.949,4.635 h 1.971 l -6.521,-15.391 h -1.584 l -6.523,15.391 z m -3.924,0 v -15.3 h -1.844 v 6.623 h -8.344 v -6.623 h -1.839 v 15.3 h 1.839 v -6.929 h 8.344 v 6.929 z m -26.724,-12.045 c 1.098,-1.15 2.479,-1.725 4.142,-1.725 1.629,0 3.005,0.577 4.118,1.736 1.109,1.158 1.668,2.62 1.668,4.382 0,1.751 -0.54,3.209 -1.612,4.374 -1.079,1.167 -2.472,1.747 -4.174,1.747 -1.634,0 -3.004,-0.586 -4.12,-1.759 -1.113,-1.173 -1.668,-2.629 -1.668,-4.362 0,-1.779 0.548,-3.243 1.646,-4.393 m -1.399,10.056 c 1.469,1.474 3.314,2.207 5.541,2.207 2.208,0 4.05,-0.745 5.527,-2.238 1.472,-1.495 2.208,-3.37 2.208,-5.631 0,-2.303 -0.733,-4.189 -2.202,-5.662 -1.467,-1.471 -3.312,-2.207 -5.533,-2.207 -2.241,0 -4.089,0.754 -5.552,2.264 -1.458,1.507 -2.188,3.379 -2.188,5.605 0,2.302 0.733,4.192 2.199,5.662 m -6.858,-10.251 v 12.24 h 1.846 v -15.3 h -1.63 l -9.212,12.24 v -12.24 h -1.841 v 15.3 h 1.625 z m -14.955,12.24 v 2.844 h 1.736 v -4.592 H 419.8 v -13.552 h -1.843 v 13.552 h -8.127 v -13.552 h -1.839 v 15.3 z m -18.833,-6.383 h -5.46 l 2.729,-6.534 z m -8.128,6.383 1.933,-4.635 h 6.911 l 1.949,4.635 h 1.975 l -6.527,-15.391 h -1.581 l -6.524,15.391 z m -3.92,0 v -15.3 h -1.846 v 6.623 h -8.344 v -6.623 h -1.842 v 15.3 h 1.842 v -6.929 h 8.344 v 6.929 z"
         id="path872" />
      <path
         fill="#0f3c73"
         d="M 158.886,207.584 V 193.01 h 2.985 l 3.555,10.319 c 0.326,0.964 0.558,1.675 0.722,2.156 0.153,-0.527 0.437,-1.309 0.799,-2.337 l 3.597,-10.139 h 2.674 v 14.574 h -1.92 V 195.39 l -4.374,12.194 h -1.785 l -4.351,-12.409 v 12.409 z"
         id="path874" />
      <polygon
         fill="#0f3c73"
         points="212.652,207.584 212.652,196.081 204.639,207.584 202.653,207.584 202.653,193.01 204.458,193.01 204.458,204.548 212.449,193.01 214.457,193.01 214.457,207.584 "
         id="polygon876" />
      <polygon
         fill="#0f3c73"
         points="302.085,207.584 302.085,196.081 294.074,207.584 292.089,207.584 292.089,193.01 293.89,193.01 293.89,204.548 301.884,193.01 303.89,193.01 303.89,207.584 "
         id="polygon878" />
      <path
         fill="#0f3c73"
         d="m 258.176,202.482 1.98,0.481 c -0.411,1.587 -1.158,2.787 -2.246,3.62 -1.076,0.827 -2.408,1.252 -3.967,1.252 -1.623,0 -2.926,-0.325 -3.945,-0.963 -1.022,-0.635 -1.793,-1.566 -2.314,-2.776 -0.526,-1.215 -0.801,-2.515 -0.801,-3.895 0,-1.529 0.303,-2.847 0.903,-3.979 0.589,-1.136 1.438,-1.991 2.538,-2.581 1.11,-0.58 2.322,-0.884 3.643,-0.884 1.516,0 2.781,0.383 3.801,1.119 1.031,0.756 1.723,1.793 2.143,3.133 l -1.967,0.447 c -0.34,-1.062 -0.855,-1.829 -1.506,-2.306 -0.664,-0.49 -1.502,-0.733 -2.499,-0.733 -1.155,0 -2.122,0.261 -2.89,0.808 -0.79,0.538 -1.325,1.258 -1.646,2.158 -0.304,0.909 -0.462,1.836 -0.462,2.799 0,1.234 0.182,2.322 0.55,3.24 0.388,0.932 0.952,1.617 1.739,2.076 0.775,0.453 1.637,0.697 2.549,0.697 1.107,0 2.055,-0.329 2.833,-0.955 0.759,-0.619 1.284,-1.543 1.564,-2.758"
         id="path880" />
      <polygon
         fill="#0f3c73"
         points="219.438,169.375 231.258,196.393 244.783,169.375 "
         id="polygon882" />
      <path
         fill="#0f3c73"
         d="M 248.148,363.589 V 348.39 l 37.158,-10.142 10.136,16.899 z m 8.445,5.059 -27.015,3.376 v -77.68 l 20.268,8.438 0.096,43.742 -3.492,0.17 v 20.265 h 10.144 v 1.689 z m 2.382,-24.893 -7.577,2.481 0.124,-40.076 7.385,2.558 z M 226.207,290.96 v 1.7 l -10.135,-5.068 -10.139,10.13 v 64.174 l -13.518,-5.065 -23.633,5.065 -6.764,5.064 c 1.7,-5.064 3.376,-8.436 5.07,-13.506 l 64.17,-109.776 52.999,92.141 -24.286,7.5 v -35.47 l -8.451,-3.362 v -3.386 z m -9.85,86.141 v -85.95 l 9.85,4.877 v 79.386 1.688 h -9.85 z m 14.98,7.177 v 5.286 H 220.27 v 27.103 h -6.248 v -32.389 z m 9.209,3.994 c 3.421,-3.189 7.62,-4.77 12.616,-4.77 2.986,0 5.66,0.646 8.039,1.92 v 7.224 c -2.158,-2.272 -4.923,-3.399 -8.271,-3.399 -3.195,0 -5.835,1.025 -7.942,3.054 -2.185,2.119 -3.274,4.838 -3.274,8.181 0,3.388 1.085,6.118 3.246,8.197 2.079,1.994 4.736,2.991 7.971,2.991 3.184,0 5.949,-1.121 8.322,-3.382 v 7.224 c -2.81,1.291 -5.526,1.926 -8.144,1.926 -5.261,0 -9.552,-1.58 -12.849,-4.742 -3.301,-3.178 -4.969,-7.251 -4.969,-12.214 0,-4.907 1.765,-8.974 5.255,-12.21 m 34.518,-3.994 8.367,16.021 7.529,-16.021 h 6.923 l -16.05,32.389 h -6.866 l 5.099,-9.88 -12.406,-22.509 z m -82.648,-8.865 v -15.2 l 11.826,5.064 v 10.136 z m -20.262,0 v -11.824 l 18.574,-3.376 v 15.2 z m 28.326,41.254 -3.243,-21.687 -7.446,21.687 h -5.326 l -7.433,-21.687 -3.221,21.687 h -6.201 l 5.308,-32.389 h 6.73 l 7.483,24.4 7.484,-24.4 h 6.744 l 5.301,32.389 z M 290.378,321.374 231.26,203.143 172.155,321.374 c -5.014,9.136 -9.393,9.708 -13.512,0 V 424.395 H 303.89 v -47.294 l -74.312,-1.688 v -1.694 l 70.923,-8.441 3.389,11.823 v -55.727 c -5.072,10.133 -8.448,10.133 -13.512,0"
         id="path884" />
    </g>
  </g>
</svg>
